<svg width="180" height="180" viewBox="0 0 180 180" fill="none" xmlns="http://www.w3.org/2000/svg">
  <!-- iOS style background -->
  <rect width="180" height="180" rx="32" fill="url(#iosGradient)"/>
  
  <!-- Main health icon -->
  <g transform="translate(90, 90)">
    <!-- Heart -->
    <path d="M0 30c-5 0-10-2-14-6C-28 8 -60-18 -60-50c0-33 27-60 60-60 18 0 34 8 45 21C56-104 72-112 90-112c33 0 60 27 60 60 0 32-32 58-46 70C100 22 95 30 90 30H0z" 
          fill="white" 
          fill-opacity="0.95" 
          transform="scale(0.5)"/>
    
    <!-- Pulse -->
    <path d="M-50 8L-35 8L-28 -12L-21 20L-14 -8L-7 8L7 8L14 -6L21 12L28 -10L35 8L50 8" 
          stroke="#22d3ee" 
          stroke-width="3" 
          stroke-linecap="round" 
          fill="none" 
          opacity="0.9"/>
    
    <!-- Cross -->
    <rect x="-3" y="-18" width="6" height="36" rx="3" fill="#34d399"/>
    <rect x="-18" y="-3" width="36" height="6" rx="3" fill="#34d399"/>
  </g>
  
  <defs>
    <linearGradient id="iosGradient" x1="0%" y1="0%" x2="100%" y2="100%">
      <stop offset="0%" style="stop-color:#6366f1"/>
      <stop offset="50%" style="stop-color:#a855f7"/>
      <stop offset="100%" style="stop-color:#ec4899"/>
    </linearGradient>
  </defs>
</svg>