<svg width="32" height="32" viewBox="0 0 32 32" fill="none" xmlns="http://www.w3.org/2000/svg">
  <!-- Background circle with gradient -->
  <circle cx="16" cy="16" r="16" fill="url(#gradient)"/>
  
  <!-- Heart icon representing health -->
  <path d="M16 26.5c-.5 0-1-.2-1.4-.6C12.8 24.1 6 17.8 6 12.5c0-3.3 2.7-6 6-6 1.8 0 3.4.8 4.5 2.1C17.6 7.3 19.2 6.5 21 6.5c3.3 0 6 2.7 6 6 0 5.3-6.8 11.6-8.6 13.4-.4.4-.9.6-1.4.6z" fill="white" fill-opacity="0.9"/>
  
  <!-- Plus sign overlay for medical theme -->
  <rect x="14.5" y="10" width="3" height="12" rx="1.5" fill="url(#gradient)" fill-opacity="0.8"/>
  <rect x="10" y="14.5" width="12" height="3" rx="1.5" fill="url(#gradient)" fill-opacity="0.8"/>
  
  <!-- Gradient definition -->
  <defs>
    <linearGradient id="gradient" x1="0%" y1="0%" x2="100%" y2="100%">
      <stop offset="0%" style="stop-color:#6366f1;stop-opacity:1" />
      <stop offset="50%" style="stop-color:#a855f7;stop-opacity:1" />
      <stop offset="100%" style="stop-color:#ec4899;stop-opacity:1" />
    </linearGradient>
  </defs>
</svg>