<svg width="512" height="512" viewBox="0 0 512 512" fill="none" xmlns="http://www.w3.org/2000/svg">
  <!-- Health Tracker Icon -->
  <rect width="512" height="512" rx="64" fill="url(#gradient)"/>
  
  <!-- Heart with pulse line -->
  <path d="M256 400C256 400 160 320 160 240C160 200 190 170 230 170C240 170 250 175 256 180C262 175 272 170 282 170C322 170 352 200 352 240C352 320 256 400 256 400Z" fill="white" opacity="0.9"/>
  
  <!-- Pulse line -->
  <path d="M100 256L140 256L160 200L180 300L200 180L220 280L240 220L260 256L452 256" stroke="white" stroke-width="8" fill="none" opacity="0.8"/>
  
  <!-- Medical cross -->
  <rect x="380" y="120" width="40" height="120" rx="8" fill="white" opacity="0.7"/>
  <rect x="340" y="160" width="120" height="40" rx="8" fill="white" opacity="0.7"/>
  
  <defs>
    <linearGradient id="gradient" x1="0%" y1="0%" x2="100%" y2="100%">
      <stop offset="0%" style="stop-color:#6366f1;stop-opacity:1" />
      <stop offset="50%" style="stop-color:#a855f7;stop-opacity:1" />
      <stop offset="100%" style="stop-color:#ec4899;stop-opacity:1" />
    </linearGradient>
  </defs>
</svg>